<svg xmlns="http://www.w3.org/2000/svg" aria-hidden="true" style="position:absolute;width:0;height:0;overflow:hidden">
  <defs>
    <symbol id="icon-twitter" viewBox="0 0 32 32">
      <path d="M29.333 7.898c-.992.435-2.048.723-3.15.863a5.44 5.44 0 0 0 2.405-3.022 10.916 10.916 0 0 1-3.467 1.323 5.465 5.465 0 0 0-9.456 3.738c0 .433.037.85.127 1.247-4.545-.222-8.567-2.4-11.268-5.718a5.5 5.5 0 0 0-.748 2.763c0 1.893.975 3.572 2.428 4.543a5.412 5.412 0 0 1-2.47-.673v.06a5.493 5.493 0 0 0 4.38 5.372c-.445.122-.93.18-1.433.18-.35 0-.703-.02-1.035-.093.708 2.165 2.718 3.757 5.108 3.808a10.985 10.985 0 0 1-6.778 2.332c-.448 0-.878-.02-1.308-.075a15.39 15.39 0 0 0 8.387 2.453c10.06 0 15.56-8.333 15.56-15.557 0-.242-.008-.475-.02-.707a10.91 10.91 0 0 0 2.74-2.838z"/>
    </symbol>
    <symbol id="icon-facebook" viewBox="0 0 32 32">
      <path d="M19.52 4.64h.96v3.6h-1.2c-.48 0-.96 0-1.2.24s-.24.48-.24 1.04v1.28h2.64v3.04h-2.64v13.2h-4.08V13.76H11.6v-3.04h2.16V9.68c0-1.76.24-3.04.72-3.6.72-1.04 2.16-1.52 4.32-1.52.24.08.48.08.72.08z"/>
    </symbol>
    <symbol id="icon-instagram" viewBox="0 0 32 32">
      <path d="M28.718 10.756a9.264 9.264 0 0 0-.596-3.145 6.547 6.547 0 0 0-3.743-3.737 9.42 9.42 0 0 0-3.108-.596c-1.367-.061-1.801-.078-5.273-.078s-3.916 0-5.274.078a9.418 9.418 0 0 0-3.106.596 6.541 6.541 0 0 0-3.743 3.737 9.288 9.288 0 0 0-.596 3.101c-.061 1.367-.08 1.8-.08 5.265s0 3.909.08 5.265a9.335 9.335 0 0 0 .596 3.104 6.548 6.548 0 0 0 3.744 3.735 9.37 9.37 0 0 0 3.106.639c1.369.061 1.803.079 5.274.079s3.917 0 5.274-.079a9.362 9.362 0 0 0 3.108-.595 6.555 6.555 0 0 0 3.743-3.737 9.346 9.346 0 0 0 .596-3.104c.061-1.365.08-1.798.08-5.265-.003-3.466-.003-3.906-.082-5.264zM15.99 22.531c-3.631 0-6.572-2.936-6.572-6.561s2.941-6.561 6.572-6.561c3.628 0 6.572 2.936 6.572 6.561s-2.944 6.561-6.572 6.561zm6.834-11.835a1.53 1.53 0 1 1 0-3.06 1.53 1.53 0 1 1 0 3.06z"/>
      <path d="M15.992 19.976a4.004 4.004 0 1 0 0-8.009 4.004 4.004 0 0 0 0 8.009z"/>
    </symbol>
    <symbol id="icon-logo" viewBox="0 0 32 32">
      <path fill="#fcf1e0" d="M3.944 20.076 14.721 2.652l.64-.674 8.236 5.491.056 3.314 2.01 3.28-8.88 14.077-12.839-8.063z" style="fill:var(--color1, #fcf1e0)"/>
      <path fill="none" stroke="#fd9222" stroke-linecap="round" stroke-linejoin="round" stroke-width="2.667" d="M21.635 23.879 7.449 15.015m3.912-6.416 14.186 8.864M10.63 25.864l11.736-19.25m4.81 8.175c-3.04-1.899-4.234-3.384-2.278-6.592l-9.626-6.015-11.736 19.25 14.186 8.864 9.454-15.507z" style="stroke:var(--color2, #fd9222)"/>
    </symbol>
    <symbol id="icon-scroll-down" viewBox="0 0 32 32">
      <path d="M16.947 17.867a1.334 1.334 0 0 1-1.894 0l-6.107-6.12a1.334 1.334 0 1 0-1.894 1.88l6.12 6.12a4.001 4.001 0 0 0 5.654 0l6.12-6.12a1.337 1.337 0 0 0-.434-2.172 1.331 1.331 0 0 0-1.46.292l-6.107 6.12z"/>
    </symbol>
    <symbol id="icon-coin" viewBox="0 0 32 32">
      <path fill="#fd9222" d="M16 .762C7.619.762.762 7.619.762 16S7.619 31.238 16 31.238 31.238 24.381 31.238 16 24.381.762 16 .762zm0 27.428C9.295 28.19 3.809 22.704 3.809 16S9.295 3.809 16 3.809 28.191 9.295 28.191 16c0 6.705-5.486 12.19-12.191 12.19z" style="fill:var(--color2, #fd9222)"/>
      <path fill="#fd9222" d="M17.981 14.476h-3.962c-.762 0-1.371-.61-1.371-1.371s.61-1.371 1.371-1.371h5.638c.914 0 1.524-.61 1.524-1.524s-.61-1.524-1.524-1.524h-2.133V7.315c0-.914-.61-1.524-1.524-1.524s-1.524.61-1.524 1.524v1.371h-.457c-2.438 0-4.419 1.981-4.419 4.419s1.981 4.419 4.419 4.419h3.809c.762 0 1.371.61 1.371 1.371s-.61 1.371-1.371 1.371H12.19c-.914 0-1.524.61-1.524 1.524s.61 1.524 1.524 1.524h2.286v1.371c0 .914.61 1.524 1.524 1.524s1.524-.61 1.524-1.524v-1.371h.457c2.438 0 4.419-1.981 4.419-4.419s-1.981-4.419-4.419-4.419z" style="fill:var(--color2, #fd9222)"/>
    </symbol>
    <symbol id="icon-bchocolate" viewBox="0 0 32 32">
      <path d="m13.511.472 8.602 8.613.091-.091a.982.982 0 0 1 1.354-.015l.998.998c.349.349.36.88.095 1.25l-.005.008-.163.219 7.04 7.04a1.593 1.593 0 0 1 0 2.263L20.746 31.534a1.593 1.593 0 0 1-2.263 0l-5.082-5.082a.952.952 0 0 1-.7.362.964.964 0 0 1-.736-.282l-2.971-2.971a.98.98 0 0 1-.015-1.354l.007-.008.088-.087L.472 13.51a1.593 1.593 0 0 1 0-2.263L11.249.47a1.593 1.593 0 0 1 2.263 0v.001zm7.522 9.691-2.007-2.006a.676.676 0 0 0-.972 0l-4.091 4.091a.686.686 0 0 0-.204.491.694.694 0 0 0 .204.491l1.999 1.999.697-.697-1.789-1.789 3.669-3.68 1.793 1.799.701-.701zm-5.801 5.797-2.005-2.005a.676.676 0 0 0-.972 0l-4.103 4.103a.676.676 0 0 0 0 .971l2.002 2.002.704-.704-1.794-1.787 3.68-3.669 1.787 1.786.699-.698zM7.797 7.078l4.091 4.091a.667.667 0 0 0 .971-.011l4.091-4.091a.654.654 0 0 0 .206-.48h.011a.703.703 0 0 0-.206-.491L12.87 2.005a.688.688 0 0 0-.982 0L7.797 6.108a.676.676 0 0 0 0 .971zm-5.795 5.794 4.091 4.091a.676.676 0 0 0 .971 0l4.091-4.091a.665.665 0 0 0 .205-.491h.011a.683.683 0 0 0-.206-.491L7.074 7.799a.676.676 0 0 0-.972 0l-4.103 4.103a.676.676 0 0 0 0 .971zm7.924 10.005 2.699 2.701 11.013-14.903-.749-.749L9.926 22.877z" style="fill:var(--color3, #000)"/>
      <path fill="#fd9222" d="m13.511.472 8.602 8.613.091-.091a.982.982 0 0 1 1.354-.015l.998.998c.349.349.36.88.095 1.25l-.005.008-.163.219 7.04 7.04a1.593 1.593 0 0 1 0 2.263L20.746 31.534a1.593 1.593 0 0 1-2.263 0l-5.082-5.082a.952.952 0 0 1-.7.362.964.964 0 0 1-.736-.282l-2.971-2.971a.98.98 0 0 1-.015-1.354l.007-.008.088-.087L.472 13.51a1.593 1.593 0 0 1 0-2.263L11.249.47a1.593 1.593 0 0 1 2.263 0v.001zm7.522 9.691-2.007-2.006a.676.676 0 0 0-.972 0l-4.091 4.091a.686.686 0 0 0-.204.491.694.694 0 0 0 .204.491l1.999 1.999.697-.697-1.789-1.789 3.669-3.68 1.793 1.799.701-.701zm-5.801 5.797-2.005-2.005a.676.676 0 0 0-.972 0l-4.103 4.103a.676.676 0 0 0 0 .971l2.002 2.002.704-.704-1.794-1.787 3.68-3.669 1.787 1.786.699-.698zM7.797 7.078l4.091 4.091a.667.667 0 0 0 .971-.011l4.091-4.091a.654.654 0 0 0 .206-.48h.011a.703.703 0 0 0-.206-.491L12.87 2.005a.688.688 0 0 0-.982 0L7.797 6.108a.676.676 0 0 0 0 .971zm-5.795 5.794 4.091 4.091a.676.676 0 0 0 .971 0l4.091-4.091a.665.665 0 0 0 .205-.491h.011a.683.683 0 0 0-.206-.491L7.074 7.799a.676.676 0 0 0-.972 0l-4.103 4.103a.676.676 0 0 0 0 .971zm7.924 10.005 2.699 2.701 11.013-14.903-.749-.749L9.926 22.877z" style="fill:var(--color2, #fd9222)"/>
    </symbol>
    <symbol id="icon-spoon" viewBox="0 0 32 32">
      <path fill="#fd9222" d="M15.451 14.106a5.154 5.154 0 0 1-1.177-3.282c0-4.324 5.181-8.642 10.362-8.642a5.183 5.183 0 0 1 5.181 5.182c0 5.182-4.318 10.364-8.646 10.364a5.151 5.151 0 0 1-3.281-1.177L5.132 29.312a1.73 1.73 0 0 1-2.445-2.445l12.764-12.761z" style="fill:var(--color2, #fd9222)"/>
    </symbol>
  </defs>
</svg>
